<svg width="1384" height="512" viewBox="0 0 1384 512" fill="none" xmlns="http://www.w3.org/2000/svg">
    <path d="M335.064 276.36C335.064 259.848 338.136 245.352 344.28 232.872C350.616 220.392 359.16 210.792 369.912 204.072C380.664 197.352 392.664 193.992 405.912 193.992C416.472 193.992 426.072 196.2 434.712 200.616C443.544 205.032 450.456 210.984 455.448 218.472V143.88H504.696V357H455.448V333.96C450.84 341.64 444.216 347.784 435.576 352.392C427.128 357 417.24 359.304 405.912 359.304C392.664 359.304 380.664 355.944 369.912 349.224C359.16 342.312 350.616 332.616 344.28 320.136C338.136 307.464 335.064 292.872 335.064 276.36ZM455.448 276.648C455.448 264.36 451.992 254.664 445.08 247.56C438.36 240.456 430.104 236.904 420.312 236.904C410.52 236.904 402.168 240.456 395.256 247.56C388.536 254.472 385.176 264.072 385.176 276.36C385.176 288.648 388.536 298.44 395.256 305.736C402.168 312.84 410.52 316.392 420.312 316.392C430.104 316.392 438.36 312.84 445.08 305.736C451.992 298.632 455.448 288.936 455.448 276.648ZM565.093 179.592C556.453 179.592 549.349 177.096 543.781 172.104C538.405 166.92 535.717 160.584 535.717 153.096C535.717 145.416 538.405 139.08 543.781 134.088C549.349 128.904 556.453 126.312 565.093 126.312C573.541 126.312 580.453 128.904 585.829 134.088C591.397 139.08 594.181 145.416 594.181 153.096C594.181 160.584 591.397 166.92 585.829 172.104C580.453 177.096 573.541 179.592 565.093 179.592ZM589.573 196.296V357H540.325V196.296H589.573ZM686.318 193.992C697.646 193.992 707.534 196.296 715.982 200.904C724.622 205.512 731.246 211.56 735.854 219.048V196.296H785.102V356.712C785.102 371.496 782.126 384.84 776.174 396.744C770.414 408.84 761.486 418.44 749.39 425.544C737.486 432.648 722.606 436.2 704.75 436.2C680.942 436.2 661.646 430.536 646.862 419.208C632.078 408.072 623.63 392.904 621.518 373.704H670.19C671.726 379.848 675.374 384.648 681.134 388.104C686.894 391.752 693.998 393.576 702.446 393.576C712.622 393.576 720.686 390.6 726.638 384.648C732.782 378.888 735.854 369.576 735.854 356.712V333.96C731.054 341.448 724.43 347.592 715.982 352.392C707.534 357 697.646 359.304 686.318 359.304C673.07 359.304 661.07 355.944 650.318 349.224C639.566 342.312 631.022 332.616 624.686 320.136C618.542 307.464 615.47 292.872 615.47 276.36C615.47 259.848 618.542 245.352 624.686 232.872C631.022 220.392 639.566 210.792 650.318 204.072C661.07 197.352 673.07 193.992 686.318 193.992ZM735.854 276.648C735.854 264.36 732.398 254.664 725.486 247.56C718.766 240.456 710.51 236.904 700.718 236.904C690.926 236.904 682.574 240.456 675.662 247.56C668.942 254.472 665.582 264.072 665.582 276.36C665.582 288.648 668.942 298.44 675.662 305.736C682.574 312.84 690.926 316.392 700.718 316.392C710.51 316.392 718.766 312.84 725.486 305.736C732.398 298.632 735.854 288.936 735.854 276.648ZM845.499 179.592C836.859 179.592 829.755 177.096 824.187 172.104C818.811 166.92 816.123 160.584 816.123 153.096C816.123 145.416 818.811 139.08 824.187 134.088C829.755 128.904 836.859 126.312 845.499 126.312C853.947 126.312 860.859 128.904 866.235 134.088C871.803 139.08 874.587 145.416 874.587 153.096C874.587 160.584 871.803 166.92 866.235 172.104C860.859 177.096 853.947 179.592 845.499 179.592ZM869.979 196.296V357H820.731V196.296H869.979ZM995.237 315.24V357H970.181C952.325 357 938.405 352.68 928.421 344.04C918.437 335.208 913.445 320.904 913.445 301.128V237.192H893.861V196.296H913.445V157.128H962.693V196.296H994.949V237.192H962.693V301.704C962.693 306.504 963.845 309.96 966.149 312.072C968.453 314.184 972.293 315.24 977.669 315.24H995.237ZM1012.88 276.36C1012.88 259.848 1015.95 245.352 1022.09 232.872C1028.43 220.392 1036.97 210.792 1047.72 204.072C1058.48 197.352 1070.48 193.992 1083.72 193.992C1095.05 193.992 1104.94 196.296 1113.39 200.904C1122.03 205.512 1128.65 211.56 1133.26 219.048V196.296H1182.51V357H1133.26V334.248C1128.46 341.736 1121.74 347.784 1113.1 352.392C1104.65 357 1094.76 359.304 1083.44 359.304C1070.38 359.304 1058.48 355.944 1047.72 349.224C1036.97 342.312 1028.43 332.616 1022.09 320.136C1015.95 307.464 1012.88 292.872 1012.88 276.36ZM1133.26 276.648C1133.26 264.36 1129.8 254.664 1122.89 247.56C1116.17 240.456 1107.92 236.904 1098.12 236.904C1088.33 236.904 1079.98 240.456 1073.07 247.56C1066.35 254.472 1062.99 264.072 1062.99 276.36C1062.99 288.648 1066.35 298.44 1073.07 305.736C1079.98 312.84 1088.33 316.392 1098.12 316.392C1107.92 316.392 1116.17 312.84 1122.89 305.736C1129.8 298.632 1133.26 288.936 1133.26 276.648ZM1267.39 143.88V357H1218.14V143.88H1267.39Z" fill="#1E255E"/>
    <path d="M 290.59744,157.43261 A 112.34905,112.34905 0 0 1 276.79275,181.59084 128.64923,128.64923 0 1 0 97.066097,365.56506 l 4.778563,4.2476 a 128.51649,128.51649 0 0 0 211.0527,-89.19963 c 3.71666,-32.38796 -6.10594,-73.80206 -22.29992,-123.18042 z M 115.64936,366.62697 a 10.937573,10.937573 0 1 1 -1.59286,-15.39756 11.176501,11.176501 0 0 1 1.59286,15.39756 z m 174.15165,-38.4939 c -31.59153,42.21054 -99.55315,27.8749 -142.82558,29.99869 0,0 -7.69878,0.53095 -15.39754,1.59286 0,0 2.92021,-1.32738 6.63685,-2.65476 30.52965,-10.61901 44.86529,-12.74282 63.44855,-22.29991 34.77724,-17.78682 69.55447,-56.81166 76.45682,-97.16386 -13.27375,38.75933 -53.62595,72.20921 -90.26153,85.74843 -25.22014,9.29163 -70.61638,18.31779 -70.61638,18.31779 l -1.8583,-1.06191 c -30.795141,-15.13207 -31.857034,-82.0318 24.4237,-103.53527 24.68918,-9.55712 48.05098,-4.24762 74.86397,-10.61901 28.40583,-6.63689 61.32474,-27.87487 74.5985,-55.74977 14.86661,44.8653 32.91891,114.41979 0.53094,157.42672 z" fill="#6DB33F"/>
</svg>
